<svg width="24" height="25" viewBox="0 0 24 25" fill="none" xmlns="http://www.w3.org/2000/svg">
<path fill-rule="evenodd" clip-rule="evenodd" d="M8.14288 4.5H5C3.89543 4.5 3 5.39543 3 6.5V8.80769H6.27273V18.5C6.27273 19.6046 7.16816 20.5 8.27273 20.5H15.7273C16.8318 20.5 17.7273 19.6046 17.7273 18.5V8.80769H21V6.5C21 5.39543 20.1046 4.5 19 4.5H15.8572C15.8572 5.60457 14.9617 6.5 13.8572 6.5H10.1429C9.03832 6.5 8.14288 5.60457 8.14288 4.5ZM13 12.5C13 13.0523 12.5523 13.5 12 13.5C11.4477 13.5 11 13.0523 11 12.5C11 11.9477 11.4477 11.5 12 11.5C12.5523 11.5 13 11.9477 13 12.5ZM12 10.5C12.5523 10.5 13 10.0523 13 9.5C13 8.94772 12.5523 8.5 12 8.5C11.4477 8.5 11 8.94772 11 9.5C11 10.0523 11.4477 10.5 12 10.5Z" fill="#545454"/>
</svg>
