<svg width="29" height="29" viewBox="0 0 29 29" fill="none" xmlns="http://www.w3.org/2000/svg">
<g clip-path="url(#clip0)">
<path d="M14.4684 8.78578L13.4392 8.11444C13.3999 8.09343 13.3566 8.08077 13.3122 8.07727C13.2678 8.07376 13.2231 8.07948 13.181 8.09407C13.1388 8.10866 13.1002 8.1318 13.0674 8.16204C13.0347 8.19227 13.0085 8.22896 12.9906 8.26979C12.7526 8.81591 12.1401 9.91181 11.8998 10.2912C12.7167 10.0114 14.0061 9.71681 14.422 9.30764C14.58 9.15264 14.6652 8.88858 14.4684 8.78578ZM27.8194 16.1675C27.7207 16.4109 25.5029 19.2497 16.2864 18.8173C13.4958 18.6862 5.13475 18.1975 5.07953 17.9982C5.07953 17.9982 5.0604 18.2772 5.0721 18.5433C5.08043 18.7352 5.12847 18.9079 5.25181 19.0215C6.09289 19.7934 8.01101 19.6244 10.7955 19.5793L11.1924 19.5727L11.4549 19.5684C11.88 19.5613 13.1417 19.5561 14.6116 19.5502C16.6216 19.5418 20.6446 19.5056 20.7597 19.502C22.2726 19.4516 23.8446 19.1117 25.5101 18.4133C27.6179 17.5285 27.8194 16.1675 27.8194 16.1675Z" fill="#545454"/>
<path fill-rule="evenodd" clip-rule="evenodd" d="M27.9271 15.41C27.9554 15.8996 27.8195 16.168 27.8195 16.168C27.8195 16.168 26.5734 17.3035 21.2603 17.7125C18.1443 17.9523 5.62117 16.8156 5.62117 16.8156L5.49607 16.6306C5.45657 16.6074 5.3862 16.5557 5.30832 16.4493C4.99788 16.0254 4.98888 15.3714 4.98076 14.7808C4.9802 14.74 4.97964 14.6995 4.97899 14.6594C4.97143 14.1945 5.02375 12.7629 5.18157 11.8238C5.24639 11.3096 5.3271 10.8636 5.42109 10.6397C5.69104 9.99639 6.24552 9.26232 6.76687 9.4886C7.00042 9.58991 7.30429 9.84581 7.64447 10.1323C8.25739 10.6484 8.98815 11.2638 9.63771 11.2531C10.5668 11.2381 12.0116 10.1523 13.0646 9.36102C13.6682 8.9074 14.143 8.55055 14.3182 8.54761C14.664 8.54179 14.8858 8.73071 15.1983 8.99706C15.5371 9.2857 15.9825 9.66525 16.8083 9.98639C17.5506 10.275 20.9413 11.6238 20.9413 11.6238C21.4479 11.815 21.722 12.0171 21.9548 12.1889C22.1204 12.311 22.2651 12.4177 22.4578 12.4943C22.941 12.6862 23.8411 12.9703 24.7161 13.2465C25.5654 13.5146 26.3909 13.7752 26.7881 13.9367C27.5949 14.2648 27.8988 14.9204 27.9271 15.41Z" fill="#545454"/>
<path d="M14.8345 8.71321C14.6762 8.60909 14.5176 8.54409 14.3177 8.54703C13.837 8.55509 11.0994 11.2294 9.63729 11.2525C8.6272 11.2692 7.42042 9.77142 6.76645 9.48801C6.56309 9.39997 6.35466 9.46027 6.16016 9.60254C6.96938 9.98442 8.42807 11.8818 9.65072 11.8616C11.1251 11.8382 13.6516 9.5091 14.8345 8.71321Z" fill="#545454"/>
<path d="M26.788 13.9368C25.9816 13.609 23.4098 12.8725 22.4577 12.4944C22.2712 12.4201 22.1286 12.3173 21.9698 12.2005C21.9411 12.2482 21.9043 12.2922 21.888 12.3454C21.6529 13.1126 22.5096 14.1841 24.1738 14.6932C25.508 15.1014 27.0522 15.0056 27.618 14.5732C27.4376 14.3225 27.1709 14.0922 26.788 13.9368Z" fill="#545454"/>
<path d="M15.4552 10.9976C15.3676 11.0681 15.2581 11.1056 15.1457 11.1037C15.0332 11.1018 14.9251 11.0605 14.84 10.987C14.7549 10.9135 14.6982 10.8125 14.6799 10.7016C14.6616 10.5907 14.6828 10.4769 14.7397 10.3799L15.3025 9.40855C15.3696 9.30472 15.4741 9.23069 15.5943 9.20178C15.7145 9.17288 15.8412 9.19131 15.9482 9.25326C16.0552 9.31521 16.1342 9.41594 16.169 9.53458C16.2038 9.65322 16.1916 9.78069 16.1349 9.89059L15.5722 10.862C15.5419 10.9141 15.5022 10.96 15.4552 10.9976ZM17.1527 11.8911C17.0699 11.9576 16.9674 11.9948 16.8612 11.9969C16.7551 11.999 16.6512 11.9658 16.5659 11.9027C16.4806 11.8395 16.4186 11.7498 16.3896 11.6476C16.3606 11.5455 16.3663 11.4366 16.4058 11.338L16.8423 10.2356C16.8919 10.1208 16.9842 10.0299 17.0997 9.98202C17.2151 9.93415 17.3447 9.93312 17.4609 9.97914C17.5772 10.0252 17.6709 10.1146 17.7223 10.2286C17.7737 10.3425 17.7787 10.472 17.7363 10.5896L17.2998 11.6921C17.2691 11.7702 17.2184 11.8389 17.1527 11.8911ZM18.9518 12.476C18.8729 12.5392 18.7759 12.5759 18.6749 12.5808C18.5738 12.5857 18.4738 12.5586 18.389 12.5033C18.3043 12.448 18.2392 12.3674 18.203 12.2729C18.1668 12.1785 18.1613 12.075 18.1874 11.9772L18.4637 10.9303C18.5019 10.8135 18.5834 10.7157 18.6914 10.657C18.7994 10.5983 18.9257 10.5831 19.0445 10.6145C19.1634 10.6459 19.2657 10.7216 19.3305 10.826C19.3954 10.9305 19.4178 11.0557 19.3933 11.1762L19.1166 12.2226C19.0907 12.3228 19.0329 12.4117 18.9518 12.476ZM20.7421 12.9354C20.6644 12.9968 20.5696 13.0328 20.4707 13.0384C20.3718 13.044 20.2736 13.019 20.1894 12.9667C20.1053 12.9145 20.0393 12.8376 20.0004 12.7465C19.9616 12.6554 19.9518 12.5545 19.9723 12.4576L20.1522 11.6201C20.1837 11.5002 20.2602 11.3972 20.3658 11.3323C20.4713 11.2675 20.5978 11.2458 20.7189 11.2718C20.8401 11.2978 20.9465 11.3694 21.0162 11.4719C21.0858 11.5743 21.1133 11.6997 21.0929 11.8219L20.913 12.6594C20.8896 12.7684 20.8292 12.8659 20.7421 12.9354ZM5.27584 16.5336C5.27584 16.5336 5.7971 16.5673 6.17429 16.3508C6.55148 16.1342 7.44612 16.035 8.10709 16.0242C8.76806 16.0135 11.2557 15.9313 12.9816 16.1349C14.7075 16.3385 17.7953 17.126 18.8392 17.2356C19.8827 17.3447 21.51 17.4501 22.7299 17.3251C23.9498 17.2002 25.0406 17.0482 25.7147 16.9186C26.584 16.7516 27.3039 16.4925 27.8194 16.1681C27.7314 16.3964 27.1193 17.4181 25.1933 18.1068C23.3521 18.7649 21.9824 18.9805 20.741 19.0215C19.4997 19.0624 12.5689 19.0696 11.4472 19.0879C10.3256 19.1061 6.98351 19.175 6.27714 18.9611C5.27376 18.6574 5.06137 18.3444 5.05849 18.1547C5.05047 17.6915 4.8953 16.5396 5.27584 16.5336Z" fill="white"/>
</g>
<defs>
<clipPath id="clip0">
<rect width="20.6388" height="20.6388" fill="white" transform="translate(0 12.8477) rotate(-38.5)"/>
</clipPath>
</defs>
</svg>
