<svg width="24" height="25" viewBox="0 0 24 25" fill="none" xmlns="http://www.w3.org/2000/svg">
<path fill-rule="evenodd" clip-rule="evenodd" d="M12.1732 2C12.436 2.00021 12.6962 2.05222 12.939 2.15308C13.1827 2.25434 13.4039 2.40283 13.59 2.59L18.409 7.42C18.5961 7.604 18.7447 7.82348 18.846 8.06558C18.9473 8.30769 18.9993 8.56756 18.999 8.83V11.001L14 16H8C7.73478 16 7.48043 16.1054 7.29289 16.2929C7.10536 16.4804 7 16.7348 7 17C7 17.2652 7.10536 17.5196 7.29289 17.7071C7.48043 17.8946 7.73478 18 8 18H12L8 22H4.99001C4.46131 21.9974 3.95516 21.7855 3.58224 21.4107C3.20933 21.0359 2.99999 20.5287 3 20V4C3 3.46957 3.21071 2.96086 3.58578 2.58579C3.96086 2.21071 4.46957 2 5 2H12.1732ZM7.29289 12.2929C7.48043 12.1054 7.73478 12 8 12H14C14.2652 12 14.5196 12.1054 14.7071 12.2929C14.8946 12.4804 15 12.7348 15 13C15 13.2652 14.8946 13.5196 14.7071 13.7071C14.5196 13.8946 14.2652 14 14 14H8C7.73478 14 7.48043 13.8946 7.29289 13.7071C7.10536 13.5196 7 13.2652 7 13C7 12.7348 7.10536 12.4804 7.29289 12.2929ZM12 8V3.5L17.5 9H13C12.7348 9 12.4804 8.89464 12.2929 8.70711C12.1054 8.51957 12 8.26522 12 8Z" fill="#545454"/>
<path d="M12.9666 23H11.2778C11.2041 23 11.1334 22.9707 11.0813 22.9186C11.0293 22.8665 11 22.7959 11 22.7222V21.0334C10.9998 20.9962 11.0071 20.9593 11.0214 20.9249C11.0357 20.8906 11.0568 20.8594 11.0834 20.8334L17.1443 14.7725L19.2276 16.8558L13.1611 22.9166C13.1363 22.9433 13.1062 22.9645 13.0727 22.9789C13.0392 22.9932 13.0031 23.0004 12.9666 23ZM19.8221 16.2614L17.7388 14.1781L18.7554 13.1615C18.8595 13.0581 19.0003 13 19.1471 13C19.2938 13 19.4347 13.0581 19.5387 13.1615L20.8387 14.4615C20.942 14.5655 21 14.7062 21 14.8528C21 14.9994 20.942 15.1401 20.8387 15.2442L19.8226 16.2608L19.8221 16.2614Z" fill="#545454"/>
</svg>
