<svg width="42" height="42" viewBox="0 0 42 42" fill="none" xmlns="http://www.w3.org/2000/svg">
<rect width="42" height="42" rx="21" fill="black"/>
<path d="M10.8273 24.0333C10.8273 23.4261 10.6644 22.9609 10.3386 22.6378C10.0128 22.3147 9.42473 22 8.57433 21.6936C7.72393 21.3872 7.07232 21.0669 6.61951 20.7326C6.17223 20.3928 5.83538 20.0084 5.60897 19.5795C5.38809 19.145 5.27765 18.6492 5.27765 18.0921C5.27765 17.1284 5.59517 16.3346 6.23021 15.7107C6.87077 15.0868 7.70736 14.7748 8.73999 14.7748C9.44682 14.7748 10.0763 14.9363 10.6285 15.2594C11.1807 15.577 11.6059 16.0198 11.9041 16.5881C12.2023 17.1563 12.3514 17.7802 12.3514 18.4598H10.8273C10.8273 17.7078 10.6479 17.1256 10.2889 16.7134C9.93 16.3012 9.41368 16.095 8.73999 16.095C8.12704 16.095 7.65214 16.2677 7.31529 16.6131C6.97845 16.9585 6.81003 17.4432 6.81003 18.0671C6.81003 18.5796 6.99225 19.0085 7.35671 19.3539C7.72117 19.6993 8.28442 20.0084 9.04647 20.2814C10.2337 20.6769 11.0814 21.1644 11.5894 21.7437C12.1029 22.3231 12.3597 23.0807 12.3597 24.0165C12.3597 25.0026 12.0422 25.7936 11.4072 26.3897C10.7721 26.9801 9.90791 27.2754 8.81454 27.2754C8.11323 27.2754 7.46439 27.1222 6.86801 26.8158C6.27714 26.5039 5.81053 26.0693 5.46816 25.5123C5.13131 24.9496 4.96289 24.3062 4.96289 23.582H6.48698C6.48698 24.3341 6.69406 24.919 7.10822 25.3368C7.52789 25.7546 8.09667 25.9635 8.81454 25.9635C9.48271 25.9635 9.98522 25.7908 10.3221 25.4454C10.6589 25.1 10.8273 24.6293 10.8273 24.0333Z" fill="white"/>
<path d="M15.123 18.0671L15.1644 19.0447C15.7332 18.2815 16.4594 17.8999 17.3429 17.8999C18.9277 17.8999 19.7312 18.9667 19.7533 21.1003V27.1083H18.2954V21.1671C18.2954 20.4597 18.1767 19.9583 17.9393 19.6631C17.7073 19.3622 17.3567 19.2118 16.8873 19.2118C16.5229 19.2118 16.1943 19.3344 15.9016 19.5795C15.6145 19.8246 15.3826 20.1449 15.2058 20.5404V27.1083H13.7397V18.0671H15.123Z" fill="white"/>
<path d="M23.8005 22.972L23.0219 23.8745V27.1083H21.5557V14.2734H23.0219V21.9526L25.8133 18.0671H27.5693L24.7199 21.844L27.942 27.1083H26.2357L23.8005 22.972Z" fill="white"/>
<path d="M36.5449 25.5958L36.2799 25.9301C35.5178 26.827 34.4024 27.2754 32.9335 27.2754C31.6303 27.2754 30.6059 26.8409 29.8604 25.9719C29.1205 25.0973 28.7422 23.8634 28.7257 22.2701V19.8803C28.7257 18.1757 29.0625 16.9 29.7362 16.0533C30.4154 15.201 31.4287 14.7748 32.7761 14.7748C33.9247 14.7748 34.822 15.0979 35.4681 15.7441C36.1197 16.3903 36.4787 17.3122 36.5449 18.5099H35.0291C34.9684 17.7523 34.7585 17.1618 34.3996 16.7385C34.0462 16.3095 33.5078 16.095 32.7844 16.095C31.9174 16.095 31.2824 16.3819 30.8793 16.9557C30.4762 17.5239 30.2663 18.4347 30.2498 19.6881V22.1699C30.2498 23.3954 30.4817 24.3369 30.9455 24.9942C31.4094 25.646 32.0748 25.9719 32.9418 25.9719C33.759 25.9719 34.3803 25.7713 34.8055 25.3702L35.0291 25.1613V22.3537H32.8258V21.0502H36.5449V25.5958Z" fill="white"/>
</svg>
