<svg width="27" height="27" viewBox="0 0 27 27" fill="none" xmlns="http://www.w3.org/2000/svg">
<g opacity="0.6">
<circle cx="13.5" cy="13.5" r="12.5" stroke="black" stroke-width="2"/>
<path d="M22 13.5C22 13.178 21.872 12.869 21.6443 12.6413C21.4166 12.4136 21.1078 12.2857 20.7857 12.2857H14.7143V6.21429C14.7143 5.89224 14.5863 5.58332 14.3586 5.3556C14.1309 5.12788 13.822 5 13.5 5C13.178 5 12.8691 5.12788 12.6414 5.3556C12.4137 5.58332 12.2857 5.89224 12.2857 6.21429V12.2857H6.21429C5.89224 12.2857 5.5834 12.4136 5.35567 12.6413C5.12795 12.869 5 13.178 5 13.5C5 13.822 5.12795 14.131 5.35567 14.3587C5.5834 14.5864 5.89224 14.7143 6.21429 14.7143H12.2857V20.7857C12.2857 21.1078 12.4137 21.4167 12.6414 21.6444C12.8691 21.8721 13.178 22 13.5 22C13.822 22 14.1309 21.8721 14.3586 21.6444C14.5863 21.4167 14.7143 21.1078 14.7143 20.7857V14.7143H20.7857C21.1078 14.7143 21.4166 14.5864 21.6443 14.3587C21.872 14.131 22 13.822 22 13.5Z" fill="black"/>
</g>
</svg>
